Simulation
nRows=16
nColumns=15
endheader
time  TH_x TH_y TH_z SC_y  SC_z  SC_x  AC_y  AC_z  AC_x  GH_y  GH_z  GH_yy  EL_x  PS_y
0.0  0.000000  0.000000  0.000000  -30.72432472627483  -1.7933798286713296  11.778267760086196  57.08487827106731  -6.378681740357225  -12.962576986002297  17.804587599071404  -4.040004379558699  6.197860712526282  25.534749027600732  0.000000
0.015  0.000000  0.000000  0.000000  -30.82748864049206  -1.8714963687438675  11.825384856440401  57.12813120366906  -6.343259809591561  -12.982170057379697  17.72490849700635  -3.785795134722459  6.107588343654737  25.555555290730613  0.000000
0.03  0.000000  0.000000  0.000000  -30.802425217386553  -1.8532273055947852  11.882768278567708  57.18365026310225  -6.364858163829728  -12.975350435386705  17.743923002322408  -3.489039490002595  6.051159517580396  25.566150319581368  0.000000
0.045  0.000000  0.000000  0.000000  -30.826624997584716  -1.8212415649957288  11.956518791089229  57.20901632944909  -6.396897585444292  -12.974908129490352  17.81866383807815  -3.139014502186916  5.943109745844349  25.54909801799327  0.000000
0.06  0.000000  0.000000  0.000000  -30.863758877412  -1.794220179803567  12.04146748009618  57.22191839247923  -6.440653263382249  -12.98915398267775  17.897730980385518  -2.7427484914816374  5.728379818738344  25.516299427295866  0.000000
0.075  0.000000  0.000000  0.000000  -30.918587961116156  -1.7692225819032121  12.141287471546175  57.241662097032005  -6.494897813251832  -13.011742404723286  18.001176460387732  -2.2967575944941108  5.432787504724063  25.46757182836415  0.000000
0.09  0.000000  0.000000  0.000000  -30.973502385698467  -1.7422623238765336  12.257477439987946  57.25491889826675  -6.553728321154638  -13.042390769273407  18.11905887544775  -1.8146360404036597  5.057225806852591  25.412665002436345  0.000000
0.105  0.000000  0.000000  0.000000  -31.02877451719084  -1.7112549621941024  12.387868817985431  57.27285667584166  -6.618852103011167  -13.077558570553286  18.249927684283996  -1.2916788397527899  4.613715433243406  25.351065667778744  0.000000
0.12  0.000000  0.000000  0.000000  -31.08372386409886  -1.675809065322411  12.53202173518147  57.290716779849646  -6.684691845522469  -13.117994077151637  18.39060395282333  -0.732890284994905  4.111888777484219  25.287332343100843  0.000000
0.135  0.000000  0.000000  0.000000  -31.13650327726621  -1.6352367566907913  12.687917087268316  57.309745504004695  -6.750139351569752  -13.16179468083639  18.536781014713945  -0.13957983305247007  3.5599875139552224  25.21947650237403  0.000000
0.15  0.000000  0.000000  0.000000  -31.18741407843476  -1.5902393665053893  12.853516044734931  57.330851872119695  -6.812016901780897  -13.209300158356173  18.685464044181742  0.48608982982895643  2.966716850999457  25.149573940280497  0.000000
0.16499999999999998  0.000000  0.000000  0.000000  -31.235630938431424  -1.54071741785034  13.027062445276972  57.35245203089108  -6.867864604088281  -13.259493206313477  18.834236642705903  1.140653357402249  2.340262029747906  25.076608804321058  0.000000
0.18  0.000000  0.000000  0.000000  -31.280839648759407  -1.487509310693353  13.206655804263583  57.376018250422206  -6.9162400287685175  -13.31251211421673  18.979942292540265  1.82191018824288  1.6872780722160212  25.00147977139171  0.000000
0.195  0.000000  0.000000  0.000000  -31.323231875897203  -1.4310237691869991  13.391834056383356  57.4007518138373  -6.956041149707818  -13.368040892924924  19.121471832248805  2.5265042235217967  1.0152768532941392  24.923992185040596  0.000000
0.21  0.000000  0.000000  0.000000  -31.362567785117378  -1.371998507864116  13.581994830419127  57.42832099014232  -6.9874743155586705  -13.425584278303965  19.25680375735667  3.2519441897273307  0.329774117793058  24.844506070501215  0.000000
0.22499999999999998  0.000000  0.000000  0.000000  -31.39935878500609  -1.311194572330933  13.776685295828482  57.4591966996652  -7.009895301394519  -13.48434760953572  19.38584814073996  3.9952448048442766  -0.3629950502630457  24.763194722872424  0.000000
